<svg width="94" height="28" viewBox="0 0 94 28" fill="none" xmlns="http://www.w3.org/2000/svg">
    <g clip-path="url(#clip0_2_12)">
        <path d="M2.91473 27.426C1.23876 27.426 0.036438 26.1685 0.036438 24.5041V4.67945C0.036438 2.71918 1.16589 1.60959 3.06047 1.60959H9.87365C15.1566 1.60959 18.6907 5.60411 18.6907 10.5603C18.6907 15.7384 15.1202 19.511 9.87365 19.511H5.75659V24.5041C5.75659 26.1685 4.51783 27.426 2.91473 27.426ZM5.75659 7.08356V14.037H9.54574C11.6589 14.037 13.007 12.6315 13.007 10.5603C13.007 8.45206 11.6589 7.08356 9.54574 7.08356H5.75659ZM28.2826 27.5C23.2182 27.5 19.2833 23.3205 19.2833 17.8836C19.2833 12.4836 23.2182 8.30411 28.2826 8.30411C30.4686 8.30411 32.3267 9.04384 33.5291 10.3753C33.8205 9.15479 34.8407 8.3411 36.0795 8.3411C37.5734 8.3411 38.6664 9.52466 38.6664 11.1521V24.6521C38.6664 26.2425 37.5734 27.426 36.0795 27.426C34.8407 27.426 33.8205 26.6123 33.5291 25.3918C32.3267 26.7603 30.4686 27.5 28.2826 27.5ZM29.0112 22.2849C31.4523 22.2849 33.2376 20.4726 33.2376 17.8836C33.2376 15.3315 31.4523 13.4822 29.0112 13.4822C26.5337 13.4822 24.712 15.3315 24.712 17.8836C24.712 20.4726 26.5337 22.2849 29.0112 22.2849ZM44.4842 27.426C42.9176 27.426 41.7517 26.2795 41.7517 24.6521V11.1521C41.7517 9.52466 42.9176 8.3411 44.3749 8.3411C45.6866 8.3411 46.7067 9.26575 46.9253 10.5973C47.7633 9.33973 49.0749 8.41507 50.8602 8.41507H51.0424C52.6455 8.41507 53.8842 9.56164 53.8842 11.263C53.8842 12.9274 52.6455 14.074 51.0424 14.074H50.678C48.2734 14.074 47.1803 15.5164 47.1803 17.8096V24.6521C47.1803 26.2795 46.0509 27.426 44.4842 27.426ZM64.6031 27.389H63.1822C59.6845 27.389 57.7535 25.1329 57.7535 22.026V13.6301H57.1341C55.6768 13.6301 54.6202 12.5575 54.6202 11.1521C54.6202 9.70959 55.6768 8.67397 56.8427 8.67397H57.207C57.6807 8.67397 57.9721 8.3411 57.9721 7.7863V6.63973C57.9721 5.04932 59.0652 3.90274 60.5954 3.90274C62.0892 3.90274 63.1822 5.04932 63.1822 6.63973V8.67397H65.5504C66.9349 8.67397 67.9915 9.70959 67.9915 11.1521C67.9915 12.5575 66.9349 13.6301 65.5504 13.6301H63.1822V20.2877C63.1822 21.5822 63.6558 21.989 64.8582 21.989H65.5869C66.9349 21.989 67.9551 23.0616 67.9551 24.4671C67.9551 26.1685 66.6799 27.389 64.6031 27.389ZM72.4685 6.45479C70.829 6.45479 69.6267 5.23425 69.6267 3.56986C69.6267 1.97945 70.829 0.721916 72.4685 0.721916C74.1081 0.721916 75.3104 1.97945 75.3104 3.56986C75.3104 5.23425 74.1081 6.45479 72.4685 6.45479ZM72.4685 27.426C70.9019 27.426 69.736 26.2795 69.736 24.6521V11.1151C69.736 9.52466 70.9019 8.3411 72.4685 8.3411C74.0352 8.3411 75.1646 9.52466 75.1646 11.1151V24.6521C75.1646 26.2795 74.0352 27.426 72.4685 27.426ZM91.2383 27.1301H79.7251C78.1584 27.1301 76.9561 25.9836 76.9561 24.4671C76.9561 23.6904 77.3205 23.0247 77.867 22.4329L85.9553 13.6301H79.6158C78.2677 13.6301 77.1747 12.4836 77.1747 11.1521C77.1747 9.78356 78.2677 8.67397 79.6158 8.67397H90.546C92.1127 8.67397 93.315 9.82055 93.315 11.374C93.315 12.1137 92.9871 12.8164 92.4406 13.3712L84.5344 22.174H91.2383C92.5863 22.174 93.6794 23.2836 93.6794 24.6521C93.6794 26.0205 92.5863 27.1301 91.2383 27.1301Z" fill="#45C1FF"/>
    </g>
    <defs>
        <clipPath id="clip0_2_12">
            <rect width="94" height="27" fill="white" transform="translate(0 0.5)"/>
        </clipPath>
    </defs>
</svg>
