<svg width="14" height="14" viewBox="0 0 14 14" fill="none" xmlns="http://www.w3.org/2000/svg">
<g clip-path="url(#clip0_128_369)">
<mask id="mask0_128_369" style="mask-type:alpha" maskUnits="userSpaceOnUse" x="-1" y="0" width="15" height="14">
<path d="M13.5475 4.70773L9.35051 4.09778L7.47436 0.294239C7.42312 0.1901 7.33881 0.105798 7.23467 0.0545549C6.9735 -0.0743786 6.65613 0.033066 6.52554 0.294239L4.64939 4.09778L0.452442 4.70773C0.336732 4.72426 0.230941 4.77881 0.149944 4.86146C0.0520234 4.96211 -0.00193525 5.09751 -7.55453e-05 5.23792C0.00178416 5.37832 0.0593101 5.51225 0.159862 5.61027L3.19641 8.57078L2.47901 12.7512C2.46219 12.8484 2.47295 12.9485 2.51007 13.0399C2.5472 13.1313 2.6092 13.2106 2.68905 13.2685C2.76891 13.3265 2.86341 13.361 2.96185 13.368C3.06029 13.375 3.15873 13.3543 3.246 13.3083L6.99995 11.3346L10.7539 13.3083C10.8564 13.3628 10.9754 13.381 11.0895 13.3612C11.3771 13.3116 11.5705 13.0388 11.5209 12.7512L10.8035 8.57078L13.84 5.61027C13.9227 5.52927 13.9772 5.42348 13.9938 5.30777C14.0384 5.01849 13.8367 4.75071 13.5475 4.70773Z" fill="#006FFD"/>
</mask>
<g mask="url(#mask0_128_369)">
<rect width="14" height="14" fill="#FFBE45"/>
</g>
</g>
<defs>
<clipPath id="clip0_128_369">
<rect width="14" height="14" fill="white"/>
</clipPath>
</defs>
</svg>
